<?xml version="1.0" encoding="utf-8"?>
<svg version="1.1" id="Layer_1" xmlns="http://www.w3.org/2000/svg" xmlns:xlink="http://www.w3.org/1999/xlink" x="0px" y="0px"
	 viewBox="0 0 50 50" style="enable-background:new 0 0 50 50;" xml:space="preserve">
<style type="text/css">
	.st0{fill:#FFFFFF;}
	.st1{fill:#F9F9F9;}
	.st2{fill:#DCDCDC;}
	.st3{fill:none;stroke:#DB1D30;stroke-width:2;stroke-linecap:round;stroke-linejoin:round;stroke-miterlimit:10;}
	.st4{fill:#DB1D30;}
	.st5{fill:#F5F5F5;}
	.st6{fill:#3E981C;}
	.st7{fill:none;stroke:#DC1D30;stroke-width:4;stroke-miterlimit:10;}
	.st8{fill:#DC1D30;}
	.st9{fill:none;stroke:#DC1D30;stroke-width:4;stroke-linecap:round;stroke-miterlimit:10;}
	.st10{opacity:0.35;}
	.st11{opacity:0.3;fill:#DC1D30;}
	.st12{fill:none;stroke:#DC1D30;stroke-width:4;stroke-linecap:square;stroke-miterlimit:10;}
</style>
<g>
	<g>
		<g>
			<path class="st4" d="M26.9,18.1C31,18.2,35,20,38.2,23.3c0.7,0.7,1.3,1.5,2,2.6c-1.9,2.9-4.5,5.1-7.7,6.4
				c-2.1,0.9-4.2,1.3-6.4,1.3c-0.7,0-1.4,0-2.1-0.1c-5.2-0.7-9.3-3.2-12.2-7.6c1.7-2.5,3.9-4.5,6.6-5.9C21,18.7,23.5,18.1,26.9,18.1
				 M19.8,25.8c0,1.7,0.6,3.2,1.8,4.4c1.2,1.2,2.8,1.9,4.5,1.9c0.1,0,0.2,0,0.3,0c3.3-0.2,6-3.1,5.9-6.4c-0.1-3.5-2.8-6.2-6.3-6.2
				c-0.1,0-0.2,0-0.3,0c-1.6,0.1-3.1,0.8-4.2,2C20.4,22.7,19.8,24.3,19.8,25.8 M26.9,17.1c-3.7,0-6.3,0.6-8.9,1.9
				c-3,1.5-5.4,3.7-7.2,6.5c-0.1,0.2-0.1,0.3,0,0.5c3.1,4.8,7.5,7.6,13.1,8.3c0.7,0.1,1.5,0.1,2.2,0.1c2.3,0,4.6-0.5,6.7-1.4
				c3.5-1.5,6.3-3.9,8.4-7.1c0.1-0.1,0.1-0.2,0-0.4c-0.7-1.1-1.5-2.2-2.4-3.1C35.4,19,31.1,17.2,26.9,17.1L26.9,17.1z M26.1,31.1
				c-3,0-5.3-2.4-5.3-5.3c-0.1-2.7,2.2-5.1,5-5.2c0.1,0,0.2,0,0.2,0c2.9,0,5.2,2.2,5.3,5.2c0.1,2.7-2.2,5.2-5,5.3
				C26.3,31.1,26.2,31.1,26.1,31.1L26.1,31.1z"/>
		</g>
	</g>
</g>
</svg>
